# xmcd
#
# Track frame offsets: 
#        150
#        14940
#        34516
#        51763
#        68516
#        84169
#        102788
#        116755
#        131913
#        146188
#        160597
#        178788
#
# Disc length: 2607 seconds
#
# Revision: 2
# Processed by: cddbd v1.5.2PL0 Copyright (c) Steve Scherf et al.
# Submitted via: ExactAudioCopyFreeDBPlugin 1.0
#
DISCID=a10a2d0c
DTITLE=Busdriver - RoadKillOvercoat
DYEAR=2007
DGENRE=Hip-Hop
TTITLE0=Casting Agents and Cowgirls
TTITLE1=Less Yes's, More No's
TTITLE2=Kill Your Employer (Recreational Paranoia Is The Sport Of Now)
TTITLE3=Ethereal Driftwood
TTITLE4=Secret Skin
TTITLE5=Sun Shower
TTITLE6=Go Slow (feat. Bianca Casady)
TTITLE7=The Trogolodyte Wins
TTITLE8=Pompous Posies! Your Party's No Fun
TTITLE9=(Bloody Paw On The) Kill Floor
TTITLE10=Mr. Mistake (Bested By The Whisper Chasm)
TTITLE11=Dream Catcher's Mitt
EXTD=www.RapMusicGuide.com
EXTT0=
EXTT1=
EXTT2=
EXTT3=
EXTT4=
EXTT5=
EXTT6=
EXTT7=
EXTT8=
EXTT9=
EXTT10=
EXTT11=
PLAYORDER=
